<svg width="1000" height="1000" viewBox="0 0 1000 1000" fill="none" xmlns="http://www.w3.org/2000/svg">
  <style>
    #levetate-one
    {
      animation:lev 4s ease-in-out infinite alternate;
    }
    #levetate-two
    {
      animation:lev 3.4s ease-in-out -3.6s infinite alternate;
    }
    #levetate-three
    {
      animation:lev 4.6s ease-in-out -1.7s infinite alternate;
    }
    @keyframes lev
    {
      0%
      {
        transform:translateY(0%);
      }
      100%
      {
        transform:translateY(50px);
      }
    }
  </style>
<g clip-path="url(#clip0)">
<rect width="1000" height="1000" fill="white"/>
<path d="M483.456 133.517C381.056 74.3167 268.789 120.85 225.456 151.517C207.456 159.517 167.856 191.117 153.456 253.517C135.456 331.517 177.456 415.517 119.456 469.517C61.4558 523.517 49.4558 665.517 119.456 727.517C189.456 789.517 245.456 837.517 483.456 829.517C721.456 821.517 849.456 789.517 909.456 603.517C969.456 417.517 791.456 295.517 701.456 281.517C611.456 267.517 611.456 207.517 483.456 133.517Z" fill="url(#paint0_linear)"/>
<circle r="17" transform="matrix(1 0 -0.453835 0.891086 197.636 665.148)" fill="#4FC3F7" fill-opacity="0.25"/>
<circle r="17" transform="matrix(1 0 -0.453835 0.891086 170.405 718.614)" fill="#4FC3F7" fill-opacity="0.25"/>
<circle r="17" transform="matrix(1 0 -0.453835 0.891086 143.175 772.079)" fill="#4FC3F7" fill-opacity="0.25"/>
<circle r="17" transform="matrix(1 0 -0.453835 0.891086 115.945 825.544)" fill="#4FC3F7" fill-opacity="0.25"/>
<circle r="17" transform="matrix(1 0 -0.453835 0.891086 88.7152 879.009)" fill="#4FC3F7" fill-opacity="0.25"/>
<circle r="17" transform="matrix(1 0 -0.453835 0.891086 248.636 665.148)" fill="#4FC3F7" fill-opacity="0.25"/>
<circle r="17" transform="matrix(1 0 -0.453835 0.891086 221.405 718.614)" fill="#4FC3F7" fill-opacity="0.25"/>
<circle r="17" transform="matrix(1 0 -0.453835 0.891086 194.175 772.079)" fill="#4FC3F7" fill-opacity="0.25"/>
<circle r="17" transform="matrix(1 0 -0.453835 0.891086 166.945 825.544)" fill="#4FC3F7" fill-opacity="0.25"/>
<circle r="17" transform="matrix(1 0 -0.453835 0.891086 139.715 879.009)" fill="#4FC3F7" fill-opacity="0.25"/>
<circle r="17" transform="matrix(1 0 -0.453835 0.891086 299.636 665.148)" fill="#4FC3F7" fill-opacity="0.25"/>
<circle r="17" transform="matrix(1 0 -0.453835 0.891086 272.405 718.614)" fill="#4FC3F7" fill-opacity="0.25"/>
<circle r="17" transform="matrix(1 0 -0.453835 0.891086 245.175 772.079)" fill="#4FC3F7" fill-opacity="0.25"/>
<circle r="17" transform="matrix(1 0 -0.453835 0.891086 217.945 825.544)" fill="#4FC3F7" fill-opacity="0.25"/>
<circle r="17" transform="matrix(1 0 -0.453835 0.891086 190.715 879.009)" fill="#4FC3F7" fill-opacity="0.25"/>
<circle r="17" transform="matrix(1 0 -0.453835 0.891086 350.636 665.148)" fill="#4FC3F7" fill-opacity="0.25"/>
<circle r="17" transform="matrix(1 0 -0.453835 0.891086 323.405 718.614)" fill="#4FC3F7" fill-opacity="0.25"/>
<circle r="17" transform="matrix(1 0 -0.453835 0.891086 296.175 772.079)" fill="#4FC3F7" fill-opacity="0.25"/>
<circle r="17" transform="matrix(1 0 -0.453835 0.891086 268.945 825.544)" fill="#4FC3F7" fill-opacity="0.25"/>
<circle r="17" transform="matrix(1 0 -0.453835 0.891086 241.715 879.009)" fill="#4FC3F7" fill-opacity="0.25"/>
<circle r="17" transform="matrix(1 0 -0.453835 0.891086 401.636 665.148)" fill="#4FC3F7" fill-opacity="0.25"/>
<circle r="17" transform="matrix(1 0 -0.453835 0.891086 374.405 718.614)" fill="#4FC3F7" fill-opacity="0.25"/>
<circle r="17" transform="matrix(1 0 -0.453835 0.891086 347.175 772.079)" fill="#4FC3F7" fill-opacity="0.25"/>
<circle r="17" transform="matrix(1 0 -0.453835 0.891086 319.945 825.544)" fill="#4FC3F7" fill-opacity="0.25"/>
<circle r="17" transform="matrix(1 0 -0.453835 0.891086 292.715 879.009)" fill="#4FC3F7" fill-opacity="0.25"/>
<circle r="17" transform="matrix(1 0 -0.453835 0.891086 452.636 665.148)" fill="#4FC3F7" fill-opacity="0.25"/>
<circle r="17" transform="matrix(1 0 -0.453835 0.891086 425.405 718.614)" fill="#4FC3F7" fill-opacity="0.25"/>
<circle r="17" transform="matrix(1 0 -0.453835 0.891086 398.175 772.079)" fill="#4FC3F7" fill-opacity="0.25"/>
<circle r="17" transform="matrix(1 0 -0.453835 0.891086 370.945 825.544)" fill="#4FC3F7" fill-opacity="0.25"/>
<circle r="17" transform="matrix(1 0 -0.453835 0.891086 343.715 879.009)" fill="#4FC3F7" fill-opacity="0.25"/>
<circle r="17" transform="matrix(1 0 -0.453835 0.891086 503.636 665.148)" fill="#4FC3F7" fill-opacity="0.25"/>
<circle r="17" transform="matrix(1 0 -0.453835 0.891086 476.405 718.614)" fill="#4FC3F7" fill-opacity="0.25"/>
<circle r="17" transform="matrix(1 0 -0.453835 0.891086 449.175 772.079)" fill="#4FC3F7" fill-opacity="0.25"/>
<circle r="17" transform="matrix(1 0 -0.453835 0.891086 421.945 825.544)" fill="#4FC3F7" fill-opacity="0.25"/>
<circle r="17" transform="matrix(1 0 -0.453835 0.891086 394.715 879.009)" fill="#4FC3F7" fill-opacity="0.25"/>
<circle r="17" transform="matrix(1 0 -0.453835 0.891086 554.636 665.148)" fill="#4FC3F7" fill-opacity="0.25"/>
<circle r="17" transform="matrix(1 0 -0.453835 0.891086 527.405 718.614)" fill="#4FC3F7" fill-opacity="0.25"/>
<circle r="17" transform="matrix(1 0 -0.453835 0.891086 500.175 772.079)" fill="#4FC3F7" fill-opacity="0.25"/>
<circle r="17" transform="matrix(1 0 -0.453835 0.891086 472.945 825.544)" fill="#4FC3F7" fill-opacity="0.25"/>
<circle r="17" transform="matrix(1 0 -0.453835 0.891086 445.715 879.009)" fill="#4FC3F7" fill-opacity="0.25"/>
<circle r="17" transform="matrix(1 0 -0.453835 0.891086 605.636 665.148)" fill="#4FC3F7" fill-opacity="0.25"/>
<circle r="17" transform="matrix(1 0 -0.453835 0.891086 578.405 718.614)" fill="#4FC3F7" fill-opacity="0.25"/>
<circle r="17" transform="matrix(1 0 -0.453835 0.891086 551.175 772.079)" fill="#4FC3F7" fill-opacity="0.25"/>
<circle r="17" transform="matrix(1 0 -0.453835 0.891086 523.945 825.544)" fill="#4FC3F7" fill-opacity="0.25"/>
<circle r="17" transform="matrix(1 0 -0.453835 0.891086 496.715 879.009)" fill="#4FC3F7" fill-opacity="0.25"/>
<circle r="17" transform="matrix(1 0 -0.453835 0.891086 656.636 665.148)" fill="#4FC3F7" fill-opacity="0.25"/>
<circle r="17" transform="matrix(1 0 -0.453835 0.891086 629.405 718.614)" fill="#4FC3F7" fill-opacity="0.25"/>
<circle r="17" transform="matrix(1 0 -0.453835 0.891086 602.175 772.079)" fill="#4FC3F7" fill-opacity="0.25"/>
<circle r="17" transform="matrix(1 0 -0.453835 0.891086 574.945 825.544)" fill="#4FC3F7" fill-opacity="0.25"/>
<circle r="17" transform="matrix(1 0 -0.453835 0.891086 547.715 879.009)" fill="#4FC3F7" fill-opacity="0.25"/>
<circle r="17" transform="matrix(1 0 -0.453835 0.891086 707.636 665.148)" fill="#4FC3F7" fill-opacity="0.25"/>
<circle r="17" transform="matrix(1 0 -0.453835 0.891086 680.405 718.614)" fill="#4FC3F7" fill-opacity="0.25"/>
<circle r="17" transform="matrix(1 0 -0.453835 0.891086 653.175 772.079)" fill="#4FC3F7" fill-opacity="0.25"/>
<circle r="17" transform="matrix(1 0 -0.453835 0.891086 625.945 825.544)" fill="#4FC3F7" fill-opacity="0.25"/>
<circle r="17" transform="matrix(1 0 -0.453835 0.891086 598.715 879.009)" fill="#4FC3F7" fill-opacity="0.25"/>
<circle r="17" transform="matrix(1 0 -0.453835 0.891086 758.636 665.148)" fill="#4FC3F7" fill-opacity="0.25"/>
<circle r="17" transform="matrix(1 0 -0.453835 0.891086 731.405 718.614)" fill="#4FC3F7" fill-opacity="0.25"/>
<circle r="17" transform="matrix(1 0 -0.453835 0.891086 704.175 772.079)" fill="#4FC3F7" fill-opacity="0.25"/>
<circle r="17" transform="matrix(1 0 -0.453835 0.891086 676.945 825.544)" fill="#4FC3F7" fill-opacity="0.25"/>
<circle r="17" transform="matrix(1 0 -0.453835 0.891086 649.715 879.009)" fill="#4FC3F7" fill-opacity="0.25"/>
<circle r="17" transform="matrix(1 0 -0.453835 0.891086 809.636 665.148)" fill="#4FC3F7" fill-opacity="0.25"/>
<circle r="17" transform="matrix(1 0 -0.453835 0.891086 782.405 718.614)" fill="#4FC3F7" fill-opacity="0.25"/>
<circle r="17" transform="matrix(1 0 -0.453835 0.891086 755.175 772.079)" fill="#4FC3F7" fill-opacity="0.25"/>
<circle r="17" transform="matrix(1 0 -0.453835 0.891086 727.945 825.544)" fill="#4FC3F7" fill-opacity="0.25"/>
<circle r="17" transform="matrix(1 0 -0.453835 0.891086 700.715 879.009)" fill="#4FC3F7" fill-opacity="0.25"/>
<circle r="17" transform="matrix(1 0 -0.453835 0.891086 860.636 665.148)" fill="#4FC3F7" fill-opacity="0.25"/>
<circle r="17" transform="matrix(1 0 -0.453835 0.891086 833.405 718.614)" fill="#4FC3F7" fill-opacity="0.25"/>
<circle r="17" transform="matrix(1 0 -0.453835 0.891086 806.175 772.079)" fill="#4FC3F7" fill-opacity="0.25"/>
<circle r="17" transform="matrix(1 0 -0.453835 0.891086 778.945 825.544)" fill="#4FC3F7" fill-opacity="0.25"/>
<circle r="17" transform="matrix(1 0 -0.453835 0.891086 751.715 879.009)" fill="#4FC3F7" fill-opacity="0.25"/>
<circle r="17" transform="matrix(1 0 -0.453835 0.891086 911.636 665.148)" fill="#4FC3F7" fill-opacity="0.25"/>
<circle r="17" transform="matrix(1 0 -0.453835 0.891086 884.405 718.614)" fill="#4FC3F7" fill-opacity="0.25"/>
<circle r="17" transform="matrix(1 0 -0.453835 0.891086 857.175 772.079)" fill="#4FC3F7" fill-opacity="0.25"/>
<circle r="17" transform="matrix(1 0 -0.453835 0.891086 829.945 825.544)" fill="#4FC3F7" fill-opacity="0.25"/>
<circle r="17" transform="matrix(1 0 -0.453835 0.891086 802.715 879.009)" fill="#4FC3F7" fill-opacity="0.25"/>
<g filter="url(#filter0_d)">
<path d="M215.875 324.957C217.022 297.366 238.633 283.567 264.145 294.134L747.334 494.278C760.09 499.561 769.966 515.028 769.393 528.823L754.831 879.193L202.351 650.348L215.875 324.957Z" fill="#BBDEFB"/>
<path d="M216.337 325.148C217.472 297.834 238.867 284.172 264.124 294.634L747.313 494.777C759.814 499.955 769.493 515.112 768.931 528.632L754.39 878.502L202.833 650.04L216.337 325.148Z" stroke="#0D47A1" stroke-opacity="0.25"/>
</g>
<g filter="url(#filter1_d)">
<path d="M99.7759 294.793C98.9888 292.146 100.419 290.857 102.97 291.913L646.211 516.931C648.763 517.988 651.469 520.99 652.256 523.637L757.904 878.934L205.425 650.09L99.7759 294.793Z" fill="url(#paint1_linear)"/>
<path d="M100.238 294.984C99.5295 292.602 100.817 291.442 103.113 292.393L646.354 517.411C648.65 518.362 651.086 521.064 651.794 523.446L757.3 878.264L205.744 649.802L100.238 294.984Z" stroke="#42A5F5"/>
</g>
<path d="M344.458 572.471L345.883 577.263L350.639 578.808L349.213 574.016L344.458 572.471ZM287.711 554.032L286.285 549.24L281.53 547.694L282.955 552.487L287.711 554.032ZM305.608 614.221L307.033 619.013L311.788 620.558L310.363 615.766L305.608 614.221ZM287.775 608.427L283.02 606.881L284.445 611.674L289.201 613.219L287.775 608.427ZM247.249 472.137L245.824 467.344L241.069 465.799L242.494 470.592L247.249 472.137ZM331.024 499.357L335.779 500.902L334.354 496.109L329.599 494.564L331.024 499.357ZM335.422 514.146L336.847 518.939L341.602 520.484L340.177 515.692L335.422 514.146ZM269.479 492.72L268.054 487.928L263.299 486.383L264.724 491.175L269.479 492.72ZM283.341 539.336L278.585 537.791L280.01 542.584L284.766 544.129L283.341 539.336ZM340.088 557.774L344.844 559.32L343.418 554.527L338.663 552.982L340.088 557.774ZM343.033 567.678L286.285 549.24L289.136 558.825L345.883 577.263L343.033 567.678ZM282.955 552.487L300.853 612.676L310.363 615.766L292.466 555.577L282.955 552.487ZM304.183 609.428L286.35 603.634L289.201 613.219L307.033 619.013L304.183 609.428ZM292.531 609.972L252.005 473.682L242.494 470.592L283.02 606.881L292.531 609.972ZM248.674 476.929L332.449 504.149L329.599 494.564L245.824 467.344L248.674 476.929ZM326.269 497.812L330.666 512.601L340.177 515.692L335.779 500.902L326.269 497.812ZM333.997 509.354L268.054 487.928L270.904 497.513L336.847 518.939L333.997 509.354ZM264.724 491.175L278.585 537.791L288.096 540.881L274.235 494.266L264.724 491.175ZM284.766 544.129L341.513 562.567L338.663 552.982L281.916 534.543L284.766 544.129ZM335.333 556.229L339.703 570.925L349.213 574.016L344.844 559.32L335.333 556.229ZM375.419 513.782L379.303 513.433L377.211 510.034L373.994 508.989L375.419 513.782ZM452.695 639.35L448.811 639.698L456.527 652.235L457.639 642.566L452.695 639.35ZM463.838 542.51L462.412 537.718L459.195 536.672L458.893 539.294L463.838 542.51ZM486.964 550.025L491.719 551.57L490.294 546.777L485.539 545.232L486.964 550.025ZM527.49 686.314L528.915 691.107L533.67 692.652L532.245 687.86L527.49 686.314ZM509.658 680.52L504.902 678.975L506.328 683.768L511.083 685.313L509.658 680.52ZM493.876 627.446L489.081 625.761L489.1 625.83L489.121 625.901L493.876 627.446ZM478.513 570.703L483.308 572.388L473.571 567.47L478.513 570.703ZM466.934 666.639L468.36 671.431L471.563 672.472L471.877 669.871L466.934 666.639ZM453.282 662.203L449.411 662.572L451.504 665.955L454.707 666.995L453.282 662.203ZM376.247 537.728L380.118 537.358L371.538 536.333L376.247 537.728ZM394.962 595.307L399.718 596.852L399.695 596.777L399.671 596.702L394.962 595.307ZM410.744 648.381L412.169 653.174L416.925 654.719L415.499 649.927L410.744 648.381ZM392.912 642.587L388.157 641.042L389.582 645.835L394.337 647.38L392.912 642.587ZM352.386 506.298L350.961 501.505L346.205 499.96L347.63 504.752L352.386 506.298ZM371.535 514.13L448.811 639.698L456.579 639.001L379.303 513.433L371.535 514.13ZM457.639 642.566L468.782 545.727L458.893 539.294L447.751 636.133L457.639 642.566ZM465.263 547.303L488.389 554.817L485.539 545.232L462.412 537.718L465.263 547.303ZM482.209 548.48L522.735 684.769L532.245 687.86L491.719 551.57L482.209 548.48ZM526.065 681.522L508.233 675.728L511.083 685.313L528.915 691.107L526.065 681.522ZM514.413 682.066L498.631 628.991L489.121 625.901L504.902 678.975L514.413 682.066ZM498.671 629.131L483.308 572.388L473.718 569.017L489.081 625.761L498.671 629.131ZM473.571 567.47L461.992 663.406L471.877 669.871L483.456 573.935L473.571 567.47ZM465.509 661.846L451.857 657.41L454.707 666.995L468.36 671.431L465.509 661.846ZM457.153 661.833L380.118 537.358L372.376 538.097L449.411 662.572L457.153 661.833ZM371.538 536.333L390.254 593.912L399.671 596.702L380.955 539.123L371.538 536.333ZM390.207 593.762L405.989 646.836L415.499 649.927L399.718 596.852L390.207 593.762ZM409.319 643.589L391.487 637.795L394.337 647.38L412.169 653.174L409.319 643.589ZM397.667 644.132L357.141 507.843L347.63 504.752L388.157 641.042L397.667 644.132ZM353.811 511.09L376.844 518.574L373.994 508.989L350.961 501.505L353.811 511.09Z" fill="#1E88E5"/>
<path d="M207.056 608.664C209.148 610.65 211.9 611.794 214.783 611.878C217.667 611.961 220.48 610.979 222.684 609.118C223.731 608.246 224.582 607.163 225.181 605.94C225.78 604.716 226.113 603.379 226.159 602.018C226.204 600.656 225.961 599.3 225.445 598.039C224.929 596.779 224.152 595.641 223.165 594.702C221.073 592.715 218.322 591.57 215.438 591.487C212.554 591.403 209.741 592.386 207.537 594.248C206.49 595.12 205.64 596.203 205.041 597.427C204.443 598.65 204.11 599.987 204.065 601.348C204.019 602.709 204.262 604.065 204.778 605.326C205.293 606.587 206.07 607.724 207.056 608.664Z" fill="#FFC9A6"/>
<path d="M208.613 606.086L185.659 596.114L190.702 586.246L210.224 594.23L208.613 606.086Z" fill="#FFC9A6"/>
<path d="M202.957 607.597L164.376 594.815C162.319 594.156 160.566 592.781 159.437 590.939L131.245 544.074L147.336 535.835L173.84 579.909L209.176 591.611L202.957 607.597Z" fill="#2196F3"/>
<path d="M230.105 574.453L198.89 589.886C198.694 589.975 198.518 590.102 198.372 590.26C198.227 590.418 198.114 590.603 198.041 590.806C197.968 591.008 197.937 591.223 197.949 591.438C197.96 591.652 198.015 591.862 198.11 592.056L205.485 606.644C205.724 607.071 206.12 607.388 206.589 607.528C207.057 607.668 207.562 607.619 207.996 607.393L238.706 591.629C239.09 591.449 239.386 591.124 239.53 590.726C239.674 590.327 239.653 589.888 239.474 589.505L232.597 575.248C232.369 574.815 231.98 574.489 231.514 574.341C231.047 574.192 230.542 574.233 230.105 574.453Z" fill="#121C21"/>
<path d="M229.247 578.489L203.96 590.349C203.822 590.407 203.697 590.492 203.592 590.598C203.487 590.705 203.404 590.831 203.348 590.97C203.292 591.109 203.263 591.257 203.265 591.407C203.267 591.557 203.298 591.705 203.357 591.842L208.236 602.868C208.314 603.028 208.423 603.171 208.558 603.288C208.693 603.405 208.849 603.493 209.019 603.548C209.189 603.603 209.368 603.622 209.545 603.606C209.723 603.59 209.895 603.538 210.052 603.453L235.42 590.399C235.554 590.332 235.672 590.239 235.77 590.126C235.867 590.014 235.942 589.882 235.988 589.741C236.035 589.599 236.054 589.45 236.043 589.301C236.032 589.152 235.991 589.007 235.924 588.874L230.986 579.047C230.822 578.749 230.551 578.526 230.227 578.422C229.904 578.318 229.554 578.342 229.247 578.489Z" fill="white"/>
<path d="M174.194 569.783C174.194 569.783 183.558 563.274 183.775 558.939C183.993 554.604 175.378 541.014 175.378 541.014L162.628 519.136L174.194 569.783Z" fill="#64B5F6"/>
<path d="M142.716 497.889C142.716 497.889 140.169 510.422 129.058 510.422C103.117 510.422 95.6823 533.344 115.173 545.467C134.663 557.591 160.622 544.41 158.171 522.128C155.72 499.846 155.724 494.721 155.724 494.721L142.716 497.889Z" fill="#000209"/>
<path d="M138.903 504.525C138.903 504.525 140.687 508.788 147.3 508.402" stroke="#1E88E5" stroke-width="1.91" stroke-linecap="round" stroke-linejoin="round"/>
<path d="M152.919 520.702L132.276 536.317L135.88 600.212L176.073 599.064L172.169 542.508L152.919 520.702Z" fill="#64B5F6"/>
<path d="M175.623 653.854L144.259 711.255L72.7604 785.694L60.1101 784.941C60.1101 784.941 85.1382 727.976 119.063 703.738L142.144 641.308L175.623 653.854Z" fill="#FFC9A6"/>
<path d="M61.4628 779.471C61.5787 779.278 61.7364 779.113 61.9244 778.988C62.1123 778.864 62.3257 778.783 62.549 778.752C62.7722 778.72 62.9997 778.739 63.2146 778.807C63.4296 778.875 63.6266 778.991 63.7913 779.144C65.0123 780.461 67.132 781.019 71.0946 781.214C75.1797 781.414 77.3765 780.76 78.2707 779.353C78.48 779.003 78.8172 778.748 79.2112 778.642C79.6051 778.536 80.0248 778.588 80.3814 778.786L102.532 792.671C103.192 793.084 103.757 793.634 104.187 794.284C104.617 794.934 104.902 795.668 105.024 796.438C105.062 796.799 105.016 797.164 104.89 797.504C104.765 797.845 104.562 798.152 104.299 798.401C104.036 798.651 103.719 798.837 103.372 798.944C103.025 799.052 102.659 799.078 102.3 799.021L60.2645 792.262C59.8814 792.209 59.5147 792.072 59.1907 791.861C58.8667 791.65 58.5934 791.37 58.3904 791.04C58.1874 790.711 58.0597 790.341 58.0165 789.957C57.9732 789.572 58.0155 789.183 58.1402 788.817L60.6049 780.919C60.6443 780.785 60.704 780.658 60.7819 780.542L61.4628 779.471Z" fill="#2196F3"/>
<path d="M170.313 635.603L196.185 700.642L214.368 787.51L201.114 788.84C201.114 788.84 169.5 729.588 174.933 706.684L132.072 653.968L170.313 635.603Z" fill="#FFC9A6"/>
<path d="M198.672 788.095C198.66 787.874 198.701 787.653 198.79 787.45C198.88 787.247 199.016 787.068 199.187 786.927C199.359 786.787 199.561 786.689 199.777 786.641C199.994 786.593 200.219 786.597 200.434 786.652C202.249 787.151 204.342 786.552 207.782 784.732C211.35 782.844 212.775 781.187 212.712 779.576C212.698 779.378 212.725 779.181 212.791 778.994C212.857 778.808 212.961 778.637 213.096 778.493C213.231 778.349 213.394 778.234 213.576 778.155C213.757 778.077 213.953 778.036 214.15 778.037L240.931 778.595C241.74 778.613 242.537 778.792 243.277 779.12C244.016 779.449 244.683 779.922 245.238 780.511C245.484 780.767 245.664 781.081 245.761 781.423C245.859 781.765 245.87 782.126 245.796 782.474C245.722 782.822 245.563 783.146 245.335 783.419C245.106 783.691 244.814 783.904 244.485 784.038L205.19 799.47C204.822 799.611 204.429 799.676 204.034 799.661C203.64 799.645 203.253 799.55 202.897 799.38C202.54 799.21 202.222 798.969 201.962 798.673C201.702 798.376 201.504 798.03 201.382 797.655L198.8 789.788C198.744 789.652 198.712 789.508 198.704 789.362L198.672 788.095Z" fill="#2196F3"/>
<path d="M184.266 485.943C184.266 497.1 166.754 508.007 156.982 508.007C147.209 508.007 148.87 501.103 148.87 489.951C148.87 478.798 156.796 469.757 166.573 469.757C176.35 469.757 184.266 474.809 184.266 485.943Z" fill="#000209"/>
<path d="M158.203 527.842C153.042 527.842 147.309 528.596 147.309 523.834V492.197H165.919V525.355C165.896 529.277 162.451 527.842 158.203 527.842Z" fill="#FFC9A6"/>
<path d="M179.754 492.197C179.754 502.496 170.708 510.844 159.542 510.844C148.376 510.844 139.334 502.496 139.334 492.197C139.334 481.898 148.38 473.547 159.542 473.547C170.703 473.547 179.754 481.898 179.754 492.197Z" fill="#FFC9A6"/>
<path d="M166.577 516.858C161.276 516.858 156.982 512.895 156.982 508.007V495.234L179.754 492.188V504.689C179.754 511.416 173.853 516.858 166.577 516.858Z" fill="#FFC9A6"/>
<path d="M179.186 496.364L183.603 502.365C184.229 503.341 183.412 504.544 182.128 504.544L177.012 505.451L179.186 496.364Z" fill="#FFC9A6"/>
<path d="M162.646 500.272C162.646 503.1 160.163 505.397 157.095 505.397C154.027 505.397 151.539 503.1 151.539 500.272C151.539 497.445 154.027 495.148 157.095 495.148C160.163 495.148 162.646 497.44 162.646 500.272Z" fill="#FFC9A6"/>
<path d="M174.194 482.498C174.194 493.65 162.569 508.397 150.482 508.397C138.394 508.397 132.276 499.355 132.276 488.199C132.276 477.042 142.071 468 154.163 468C166.255 468 174.194 471.345 174.194 482.498Z" fill="#000D26"/>
<path d="M148.87 526.925L168.107 536.893L164.507 522.4L148.87 526.925Z" fill="#FFC9A6"/>
<path d="M176.073 599.059L202.535 681.901C202.535 681.901 127.782 714.309 87.6029 678.701L135.88 600.208L176.073 599.059Z" fill="#1A237E"/>
<path d="M126.729 643.396C126.38 649.02 131.037 653.836 137.133 654.167C143.228 654.499 148.453 650.196 148.802 644.572C149.152 638.948 144.499 634.132 138.404 633.801C132.308 633.47 127.083 637.759 126.729 643.396Z" fill="#FFC9A6"/>
<path d="M129.829 642.67L121.886 620.434L133.116 617.025L140.264 635.594L129.829 642.67Z" fill="#FFC9A6"/>
<path d="M125.513 638.167L106.108 591.143C105.667 590.078 105.464 588.93 105.513 587.778C105.562 586.626 105.863 585.499 106.394 584.475L128.803 539.621C130.987 535.382 136.474 533.58 141.059 535.595C145.652 537.606 147.604 542.671 145.421 546.906L124.718 588.488L142.725 632.121L125.513 638.167Z" fill="#64B5F6"/>
<path d="M146.533 525.296L168.32 536.507L167.689 536.961L166.328 525.854C166.324 525.827 166.325 525.799 166.332 525.772C166.34 525.745 166.352 525.72 166.369 525.698C166.386 525.676 166.407 525.658 166.431 525.644C166.455 525.63 166.482 525.622 166.509 525.618C166.563 525.612 166.618 525.627 166.661 525.66C166.704 525.693 166.733 525.741 166.741 525.795L168.556 536.839C168.569 536.951 168.539 537.064 168.473 537.155C168.406 537.247 168.308 537.31 168.198 537.333C168.108 537.346 168.016 537.332 167.934 537.293L146.147 526.081C146.077 526.068 146.012 526.039 145.955 525.996C145.899 525.953 145.853 525.898 145.822 525.834C145.791 525.771 145.775 525.701 145.776 525.63C145.777 525.559 145.794 525.489 145.827 525.426C145.86 525.363 145.906 525.309 145.964 525.267C146.021 525.226 146.087 525.198 146.157 525.187C146.227 525.176 146.299 525.181 146.366 525.202C146.434 525.223 146.496 525.26 146.547 525.31L146.533 525.296Z" fill="#1E88E5"/>
<path d="M134.246 569.37L142.371 553.07" stroke="#1E88E5" stroke-width="0.72" stroke-linecap="round" stroke-linejoin="round"/>
<path d="M115.808 589.373C115.808 589.373 117.973 587.612 121.886 589.373" stroke="#1E88E5" stroke-width="0.72" stroke-linecap="round" stroke-linejoin="round"/>
<path d="M165.896 516.835C165.896 516.835 161.847 516.309 158.085 512.124C158.085 512.124 158.489 518.024 165.896 522.4V516.835Z" fill="#FFBE99"/>
<path d="M975.827 791.777L991.471 806.449L982.852 818.664L963.401 801.603L975.827 791.777Z" fill="#995126"/>
<path d="M987.31 799.055C987.06 799.05 986.822 799.109 986.617 799.227C986.411 799.345 986.246 799.519 986.134 799.734C986.022 799.948 985.968 800.197 985.976 800.456C985.984 800.716 986.055 800.979 986.181 801.223C986.992 802.737 987.518 804.363 987.726 805.999C987.934 807.636 987.821 809.249 987.392 810.74C986.256 815.025 983.55 815.932 981.687 816.01C981.464 816.004 981.249 816.048 981.057 816.138C980.866 816.228 980.701 816.363 980.574 816.533C980.447 816.704 980.362 816.906 980.322 817.127C980.283 817.348 980.292 817.582 980.347 817.814L988.871 848.534C989.144 849.483 989.591 850.394 990.186 851.213C990.781 852.033 991.512 852.744 992.335 853.304C993.928 854.422 995.933 853.791 996.152 852.111L1002.24 805.477C1002.48 803.64 1001.01 801.721 999.018 801.267L989.242 799.054C989.082 799.018 988.921 799.005 988.764 799.013L987.31 799.055Z" fill="#162026"/>
<path d="M885.486 645.978L921.905 733.719L982.305 792.743L964.182 808.428L893.934 744.759L824.81 642.238L885.486 645.978Z" fill="#1A237E"/>
<path d="M771.12 633.565C764.034 634.108 759.74 640.235 761.535 647.237C763.33 654.239 770.537 659.461 777.624 658.913C784.711 658.365 789.004 652.242 787.204 645.244C785.405 638.247 778.207 633.017 771.12 633.565Z" fill="#995126"/>
<path d="M767.573 634.392L792.238 621.586L800.503 633.8L780.095 645.08L767.573 634.392Z" fill="#995126"/>
<path d="M793.218 645.269L843.526 606.425L829.174 586.478L774.673 624.488L793.218 645.269Z" fill="#1E88E5"/>
<path d="M937.798 668.477C940.64 675.315 948.4 679.564 955.138 677.97C961.875 676.376 965.038 669.54 962.196 662.701C959.354 655.862 951.594 651.614 944.857 653.208C938.12 654.802 934.962 661.624 937.798 668.477Z" fill="#995126"/>
<path d="M939.794 671.896L918.532 647.898L928.652 640.172L946.965 660.048L939.794 671.896Z" fill="#995126"/>
<path d="M825.061 631.195L890.181 644.149L857.962 578.256C849.855 565.717 847.013 557.267 837.348 549.828C826.865 541.762 820.578 541.161 813.125 542.798L811.936 543.05C795.55 546.65 787.627 563.006 794.235 579.587L825.061 631.195Z" fill="#1E88E5"/>
<path d="M853.836 787.484L867.348 811.399L850.539 810.424L838.293 790.764L853.836 787.484Z" fill="#995126"/>
<path d="M867.603 808.721C867.508 808.459 867.362 808.213 867.173 808.001C866.985 807.789 866.759 807.616 866.513 807.495C866.267 807.373 866.006 807.307 865.748 807.299C865.491 807.292 865.244 807.344 865.025 807.451C863.19 808.356 859.49 810.915 854.873 809.553C850.074 808.11 845.81 804.02 845.238 802.207C845.076 801.735 844.749 801.321 844.328 801.054C843.906 800.788 843.425 800.69 842.987 800.783L815.904 807.294C814.119 807.617 812.64 808.689 811.789 810.273C811.033 811.739 812.225 813.729 814.056 814.073L864.756 823.67C866.747 824.066 868.387 822.772 868.337 820.872L868.135 810.579C868.13 810.424 868.102 810.268 868.053 810.114L867.603 808.721Z" fill="#162026"/>
<path d="M924.831 661.274L943.641 646.81L894.15 586.24L834.705 548.614C828.432 544.085 820.339 544.746 816.629 550.081C812.919 555.417 814.998 563.427 821.277 567.937L877.749 603.419L924.831 661.274Z" fill="#1E88E5"/>
<path d="M811.025 560.786L822.101 554.167C822.477 553.955 822.793 553.656 823.029 553.289C823.265 552.921 823.415 552.494 823.469 552.035C823.524 551.575 823.481 551.095 823.344 550.624C823.208 550.153 822.98 549.702 822.676 549.302L794.185 511.085L777.812 520.864L806.711 559.635C807.246 560.329 807.982 560.83 808.778 561.043C809.574 561.255 810.374 561.164 811.025 560.786Z" fill="#995126"/>
<path d="M799.554 531.306C799.554 531.306 801.765 539.04 795.316 544.206L790.329 538.146L799.554 531.306Z" fill="#8B461D"/>
<path d="M775.883 506.566C775.393 518.396 785.202 530.023 797.812 532.531C810.422 535.04 821.025 527.472 821.515 515.643C822.004 503.813 812.196 492.186 799.586 489.677C786.975 487.169 776.373 494.732 775.883 506.566Z" fill="#995126"/>
<path d="M789.491 539.869C795.465 541.058 800.502 537.465 800.735 531.853L801.584 511.336L775.916 506.231L775.224 522.951C774.886 530.661 781.282 538.236 789.491 539.869Z" fill="#995126"/>
<path d="M776.165 511.446L770.903 517.351C770.153 518.335 771.013 519.902 772.463 520.19L778.182 522.358L776.165 511.446Z" fill="#995126"/>
<path d="M775.883 506.566C775.393 518.396 785.202 530.023 797.812 532.531C810.422 535.04 821.025 527.472 821.515 515.643C822.004 503.813 812.196 492.186 799.586 489.677C786.975 487.169 776.373 494.732 775.883 506.566Z" fill="#995126"/>
<path d="M796.05 519.976C796.05 519.976 788.93 511.724 793.613 501.642C793.613 501.642 777.184 500.141 773.877 494.137C773.877 494.137 788.71 470.602 813.534 488.58C838.357 506.558 825.591 531.427 825.591 531.427L804.414 532.927L796.05 519.976Z" fill="#121C21"/>
<path d="M794.793 519.682C794.658 522.936 797.353 526.128 800.814 526.816C804.274 527.504 807.183 525.427 807.318 522.173C807.452 518.919 804.757 515.727 801.301 515.04C797.846 514.352 794.927 516.428 794.793 519.682Z" fill="#995024"/>
<path d="M812.512 526.58L815 535.95C815 535.95 799.666 536.83 800.086 526.671L807.024 529.257L812.512 526.58Z" fill="#121C21"/>
<path d="M817.327 542.135C817.327 542.135 804.006 549.738 800.575 567.774L831.094 555.956L817.327 542.135Z" fill="#42A5F5"/>
<path d="M825.061 631.195C825.061 631.195 798.877 667.29 781.945 707.7C781.343 709.139 781.152 710.78 781.391 712.452C781.63 714.123 782.291 715.765 783.306 717.208L833.336 791.721L863.401 790.051L822.661 721.379C822.298 720.704 822.155 719.953 822.259 719.255C822.362 718.556 822.704 717.954 823.227 717.552L859.188 681.571C859.188 681.571 899.574 666.864 890.167 644.146L825.061 631.195Z" fill="#0D47A1"/>
<path d="M791.471 823.539C791.304 827.568 787.689 830.144 783.402 829.291C779.114 828.438 775.775 824.479 775.942 820.45C776.109 816.421 779.719 813.839 784.006 814.692C788.294 815.545 791.638 819.505 791.471 823.539Z" fill="#9E9B9E"/>
<path d="M915.18 848.146C915.013 852.175 911.403 854.752 907.116 853.899C902.828 853.047 899.484 849.086 899.651 845.057C899.818 841.028 903.428 838.446 907.72 839.3C912.012 840.154 915.347 844.113 915.18 848.146Z" fill="#9E9B9E"/>
<path d="M918.657 842.989L767.593 812.94C763.524 812.149 759.583 810.197 756.228 807.311L746.049 798.5C745.789 798.289 745.566 798.028 745.397 797.737C745.227 797.445 745.114 797.128 745.065 796.808C745.016 796.487 745.032 796.169 745.112 795.875C745.191 795.581 745.334 795.317 745.529 795.101C745.952 794.659 746.545 794.422 747.191 794.437C747.838 794.452 748.493 794.718 749.028 795.182L759.207 803.993C761.74 806.172 764.716 807.646 767.787 808.243L918.837 838.289C921.948 838.921 925.035 838.629 927.728 837.446L938.166 832.814C938.729 832.564 939.394 832.556 940.033 832.792C940.671 833.029 941.237 833.492 941.621 834.092C941.798 834.38 941.919 834.694 941.976 835.015C942.034 835.335 942.026 835.654 941.955 835.951C941.883 836.249 941.749 836.517 941.561 836.739C941.373 836.962 941.135 837.133 940.863 837.241L930.426 841.868C926.861 843.436 922.775 843.825 918.657 842.989Z" fill="#001B2F"/>
<path d="M866.935 596.63L835.841 577.093" stroke="#42A5F5" stroke-width="0.94" stroke-linecap="round" stroke-linejoin="round"/>
<path d="M879.318 599.088C879.318 599.088 880.306 595.599 885.196 594.15" stroke="#42A5F5" stroke-width="0.94" stroke-linecap="round" stroke-linejoin="round"/>
<path d="M799.72 553.255L801.143 565.167L804.502 556.388C804.502 556.388 808.546 546.559 817.308 542.131" stroke="#42A5F5" stroke-width="0.94" stroke-linecap="round" stroke-linejoin="round"/>
<path d="M920.232 654.862L938.111 641.116" stroke="#42A5F5" stroke-width="0.94" stroke-linecap="round" stroke-linejoin="round"/>
<path d="M783.682 619.884L800.332 637.925" stroke="#42A5F5" stroke-width="0.94" stroke-linecap="round" stroke-linejoin="round"/>
<g id="levetate-one">

  <path d="M327 41H454C467.807 41 479 52.1929 479 66V249H327V41Z" fill="#BBDEFB"/>
  <rect x="393" y="52" width="74" height="6" fill="#64B5F6"/>
  <rect x="393" y="62" width="74" height="6" fill="#64B5F6"/>
  <rect x="393" y="72" width="74" height="6" fill="#64B5F6"/>
  <rect x="393" y="82" width="74" height="6" fill="#64B5F6"/>
  <rect x="393" y="92" width="74" height="6" fill="#64B5F6"/>
  <rect x="339" y="102" width="128" height="6" fill="#64B5F6"/>
  <rect x="339" y="112" width="128" height="6" fill="#64B5F6"/>
  <rect x="339" y="122" width="128" height="6" fill="#64B5F6"/>
  <rect x="339" y="132" width="128" height="6" fill="#64B5F6"/>
  <rect x="339" y="142" width="128" height="6" fill="#64B5F6"/>
  <rect x="339" y="152" width="128" height="6" fill="#64B5F6"/>
  <rect x="339" y="162" width="128" height="6" fill="#64B5F6"/>
  <rect x="339" y="172" width="128" height="6" fill="#64B5F6"/>
  <rect x="339" y="182" width="128" height="6" fill="#64B5F6"/>
  <rect x="339" y="192" width="128" height="6" fill="#64B5F6"/>
  <rect x="339" y="202" width="128" height="6" fill="#64B5F6"/>
  <rect x="339" y="212" width="128" height="6" fill="#64B5F6"/>
  <rect x="339" y="222" width="128" height="6" fill="#64B5F6"/>
  <rect x="339" y="232" width="73" height="6" fill="#64B5F6"/>
  <rect x="339" y="52" width="51" height="46" fill="#64B5F6"/>

</g>

<g id="levetate-three">

  <path d="M820.967 334.505C820.967 330.988 823.819 328.136 827.336 328.136H968.226C971.743 328.136 974.595 330.988 974.595 334.505V430.619C974.595 434.137 971.743 436.988 968.226 436.988H827.336C823.819 436.988 820.967 434.137 820.967 430.619V334.505Z" fill="#1E88E5"/>
  <path d="M883.113 312.214L899.807 328.329L883.113 344.059H821.063V317.907C821.14 314.279 825.02 312.6 826.95 312.214H883.113Z" fill="#1E88E5"/>
  <g filter="url(#filter2_d)">
  <path d="M968.226 328.136H827.336C823.819 328.136 820.967 330.988 820.967 334.505V430.619C820.967 434.137 823.819 436.988 827.336 436.988H968.226C971.743 436.988 974.595 434.137 974.595 430.619V334.505C974.595 330.988 971.743 328.136 968.226 328.136Z" fill="url(#paint2_linear)"/>
  </g>
  <g filter="url(#filter3_d)">
  <path d="M883.113 312.214L899.807 328.329L883.113 344.059H821.064V317.907C821.141 314.279 825.02 312.6 826.95 312.214H883.113Z" fill="#1E88E5"/>
  </g>
  <g filter="url(#filter4_d)">
  <mask id="mask0" mask-type="alpha" maskUnits="userSpaceOnUse" x="848" y="381" width="98" height="64">
  <path d="M945.452 386.036C945.452 383.372 943.292 381.211 940.627 381.211H853.777C851.112 381.211 848.952 383.372 848.952 386.036V444.322H945.452V386.036Z" fill="#C4C4C4"/>
  </mask>
  <g mask="url(#mask0)">
  <path d="M848.952 381.018H876.937V439.497C876.937 442.162 874.777 444.322 872.112 444.322H853.777C851.112 444.322 848.952 442.162 848.952 439.497V381.018Z" fill="url(#paint3_linear)"/>
  <path d="M917.853 381.018H945.838V439.497C945.838 442.162 943.678 444.322 941.013 444.322H922.678C920.013 444.322 917.853 442.162 917.853 439.497V381.018Z" fill="url(#paint4_linear)"/>
  <path d="M945.452 381.211H849.145L877.13 408.907H917.853L945.452 381.211Z" fill="url(#paint5_linear)"/>
  </g>
  </g>
  <mask id="mask1" mask-type="alpha" maskUnits="userSpaceOnUse" x="821" y="312" width="79" height="33">
  <path d="M883.113 312.214L899.807 328.329L883.113 344.059H821.064V317.907C821.141 314.279 825.02 312.6 826.95 312.214H883.113Z" fill="#1976D2"/>
  </mask>
  <g mask="url(#mask1)">
  <g opacity="0.3" filter="url(#filter5_d)">
  </g>
  <g opacity="0.3" filter="url(#filter6_d)">
  <path opacity="0.3" d="M883.226 343.977L899.802 328.326L899.863 328.391L883.287 344.042L883.226 343.977Z" fill="#C4C4C4"/>
  </g>
  </g>
</g>

<g id="levetate-two">

  <path d="M743.894 210.334L771.462 258.084H716.326L743.894 210.334Z" fill="#2196F3"/>
  <rect x="579" y="76" width="329.788" height="161.711" rx="19" fill="#2196F3"/>
  <rect x="584.73" y="81.0932" width="318.328" height="151.524" rx="12" fill="#E3F2FD"/>
  <rect x="589.823" y="87.4598" width="49.6592" height="87.8585" fill="#2196F3"/>
  <rect x="644.576" y="87.4598" width="150.887" height="87.8585" fill="#2196F3"/>
  <rect x="589.823" y="181.685" width="205.64" height="45.2026" fill="#2196F3"/>
  <rect x="801.83" y="87.4598" width="94.8617" height="139.428" fill="#2196F3"/>

</g>

</g>
<defs>
<filter id="filter0_d" x="187.351" y="275.581" width="597.066" height="618.612" filterUnits="userSpaceOnUse" color-interpolation-filters="sRGB">
<feFlood flood-opacity="0" result="BackgroundImageFix"/>
<feColorMatrix in="SourceAlpha" type="matrix" values="0 0 0 0 0 0 0 0 0 0 0 0 0 0 0 0 0 0 127 0"/>
<feOffset/>
<feGaussianBlur stdDeviation="7.5"/>
<feColorMatrix type="matrix" values="0 0 0 0 0.0509804 0 0 0 0 0.278431 0 0 0 0 0.631373 0 0 0 0.25 0"/>
<feBlend mode="normal" in2="BackgroundImageFix" result="effect1_dropShadow"/>
<feBlend mode="normal" in="SourceGraphic" in2="effect1_dropShadow" result="shape"/>
</filter>
<filter id="filter1_d" x="84.5598" y="276.544" width="688.345" height="617.39" filterUnits="userSpaceOnUse" color-interpolation-filters="sRGB">
<feFlood flood-opacity="0" result="BackgroundImageFix"/>
<feColorMatrix in="SourceAlpha" type="matrix" values="0 0 0 0 0 0 0 0 0 0 0 0 0 0 0 0 0 0 127 0"/>
<feOffset/>
<feGaussianBlur stdDeviation="7.5"/>
<feColorMatrix type="matrix" values="0 0 0 0 0.0509804 0 0 0 0 0.278431 0 0 0 0 0.631373 0 0 0 0.25 0"/>
<feBlend mode="normal" in2="BackgroundImageFix" result="effect1_dropShadow"/>
<feBlend mode="normal" in="SourceGraphic" in2="effect1_dropShadow" result="shape"/>
</filter>
<filter id="filter2_d" x="816.967" y="324.136" width="161.628" height="116.852" filterUnits="userSpaceOnUse" color-interpolation-filters="sRGB">
<feFlood flood-opacity="0" result="BackgroundImageFix"/>
<feColorMatrix in="SourceAlpha" type="matrix" values="0 0 0 0 0 0 0 0 0 0 0 0 0 0 0 0 0 0 127 0"/>
<feOffset/>
<feGaussianBlur stdDeviation="2"/>
<feColorMatrix type="matrix" values="0 0 0 0 0 0 0 0 0 0 0 0 0 0 0 0 0 0 0.25 0"/>
<feBlend mode="normal" in2="BackgroundImageFix" result="effect1_dropShadow"/>
<feBlend mode="normal" in="SourceGraphic" in2="effect1_dropShadow" result="shape"/>
</filter>
<filter id="filter3_d" x="817.064" y="308.214" width="86.744" height="39.845" filterUnits="userSpaceOnUse" color-interpolation-filters="sRGB">
<feFlood flood-opacity="0" result="BackgroundImageFix"/>
<feColorMatrix in="SourceAlpha" type="matrix" values="0 0 0 0 0 0 0 0 0 0 0 0 0 0 0 0 0 0 127 0"/>
<feOffset/>
<feGaussianBlur stdDeviation="2"/>
<feColorMatrix type="matrix" values="0 0 0 0 0 0 0 0 0 0 0 0 0 0 0 0 0 0 0.25 0"/>
<feBlend mode="normal" in2="BackgroundImageFix" result="effect1_dropShadow"/>
<feBlend mode="normal" in="SourceGraphic" in2="effect1_dropShadow" result="shape"/>
</filter>
<filter id="filter4_d" x="828.952" y="361.211" width="136.5" height="103.111" filterUnits="userSpaceOnUse" color-interpolation-filters="sRGB">
<feFlood flood-opacity="0" result="BackgroundImageFix"/>
<feColorMatrix in="SourceAlpha" type="matrix" values="0 0 0 0 0 0 0 0 0 0 0 0 0 0 0 0 0 0 127 0"/>
<feOffset/>
<feGaussianBlur stdDeviation="10"/>
<feColorMatrix type="matrix" values="0 0 0 0 0 0 0 0 0 0 0 0 0 0 0 0 0 0 0.5 0"/>
<feBlend mode="normal" in2="BackgroundImageFix" result="effect1_dropShadow"/>
<feBlend mode="normal" in="SourceGraphic" in2="effect1_dropShadow" result="shape"/>
</filter>
<filter id="filter5_d" x="795.967" y="319.059" width="112.146" height="50.193" filterUnits="userSpaceOnUse" color-interpolation-filters="sRGB">
<feFlood flood-opacity="0" result="BackgroundImageFix"/>
<feColorMatrix in="SourceAlpha" type="matrix" values="0 0 0 0 0 0 0 0 0 0 0 0 0 0 0 0 0 0 127 0"/>
<feOffset/>
<feGaussianBlur stdDeviation="12.5"/>
<feColorMatrix type="matrix" values="0 0 0 0 0 0 0 0 0 0 0 0 0 0 0 0 0 0 1 0"/>
<feBlend mode="normal" in2="BackgroundImageFix" result="effect1_dropShadow"/>
<feBlend mode="normal" in="SourceGraphic" in2="effect1_dropShadow" result="shape"/>
</filter>
<filter id="filter6_d" x="858.226" y="303.326" width="66.6365" height="65.7159" filterUnits="userSpaceOnUse" color-interpolation-filters="sRGB">
<feFlood flood-opacity="0" result="BackgroundImageFix"/>
<feColorMatrix in="SourceAlpha" type="matrix" values="0 0 0 0 0 0 0 0 0 0 0 0 0 0 0 0 0 0 127 0"/>
<feOffset/>
<feGaussianBlur stdDeviation="12.5"/>
<feColorMatrix type="matrix" values="0 0 0 0 0 0 0 0 0 0 0 0 0 0 0 0 0 0 1 0"/>
<feBlend mode="normal" in2="BackgroundImageFix" result="effect1_dropShadow"/>
<feBlend mode="normal" in="SourceGraphic" in2="effect1_dropShadow" result="shape"/>
</filter>
<linearGradient id="paint0_linear" x1="262.351" y1="136" x2="600.351" y2="818" gradientUnits="userSpaceOnUse">
<stop stop-color="#E3F2FD"/>
<stop offset="0.290481" stop-color="#E3F2FD" stop-opacity="0.782139"/>
<stop offset="1" stop-color="#E3F2FD" stop-opacity="0.25"/>
</linearGradient>
<linearGradient id="paint1_linear" x1="374.591" y1="404.422" x2="262.96" y2="673.922" gradientUnits="userSpaceOnUse">
<stop stop-color="#BBDEFB"/>
<stop offset="1" stop-color="#42A5F5" stop-opacity="0.75"/>
</linearGradient>
<linearGradient id="paint2_linear" x1="875.007" y1="367.122" x2="974.595" y2="436.988" gradientUnits="userSpaceOnUse">
<stop stop-color="#42A5F5"/>
<stop offset="1" stop-color="#0D47A1"/>
</linearGradient>
<linearGradient id="paint3_linear" x1="862.944" y1="381.018" x2="862.944" y2="444.322" gradientUnits="userSpaceOnUse">
<stop stop-color="#42A5F5"/>
<stop offset="1" stop-color="#1565C0"/>
</linearGradient>
<linearGradient id="paint4_linear" x1="931.845" y1="381.018" x2="931.845" y2="444.322" gradientUnits="userSpaceOnUse">
<stop stop-color="#1E88E5"/>
<stop offset="1" stop-color="#1565C0"/>
</linearGradient>
<linearGradient id="paint5_linear" x1="897.298" y1="381.211" x2="897.298" y2="408.907" gradientUnits="userSpaceOnUse">
<stop stop-color="#64B5F6"/>
<stop offset="1" stop-color="#2196F3"/>
</linearGradient>
<clipPath id="clip0">
<rect width="1000" height="1000" fill="white"/>
</clipPath>
</defs>
</svg>
