<svg width="562" height="864" viewBox="0 0 562 864" fill="none" xmlns="http://www.w3.org/2000/svg">
<g clip-path="url(#clip0)">
<rect width="562" height="864" fill="white"/>
<path d="M363 67C263.8 32.6 80.3333 98 1 135V1H562V225C562 161 487 110 363 67Z" fill="url(#paint0_linear)"/>
<path d="M110 663C79.6 619.8 24 597.667 0 592V864H393C249 864 148 717 110 663Z" fill="url(#paint1_linear)"/>
<path d="M150 85C181.2 25 240.333 1.33333 266 -3H-4V216C34.3333 197.333 118.8 145 150 85Z" fill="url(#paint2_linear)" stroke="white" stroke-width="5"/>
<path d="M558 741C558 641.8 184 764.333 -3 838V867H558V741Z" fill="url(#paint3_linear)" stroke="white" stroke-width="5"/>
<path d="M302 867C413.2 867 523.667 672.333 565 575V867H302Z" fill="url(#paint4_linear)" stroke="white" stroke-width="5"/>
</g>
<defs>
<linearGradient id="paint0_linear" x1="281.5" y1="1" x2="281.5" y2="225" gradientUnits="userSpaceOnUse">
<stop stop-color="#2196F3"/>
<stop offset="1" stop-color="#0D47A1"/>
</linearGradient>
<linearGradient id="paint1_linear" x1="196.5" y1="592" x2="196.5" y2="864" gradientUnits="userSpaceOnUse">
<stop stop-color="#2196F3"/>
<stop offset="1" stop-color="#0D47A1"/>
</linearGradient>
<linearGradient id="paint2_linear" x1="1.00001" y1="3" x2="-47" y2="181" gradientUnits="userSpaceOnUse">
<stop stop-color="#42A5F5"/>
<stop offset="1" stop-color="#1976D2"/>
</linearGradient>
<linearGradient id="paint3_linear" x1="222" y1="850" x2="510" y2="710" gradientUnits="userSpaceOnUse">
<stop stop-color="#2196F3"/>
<stop offset="1" stop-color="#0D47A1"/>
</linearGradient>
<linearGradient id="paint4_linear" x1="508" y1="779" x2="331" y2="867" gradientUnits="userSpaceOnUse">
<stop stop-color="#2196F3"/>
<stop offset="1" stop-color="#0D47A1"/>
</linearGradient>
<clipPath id="clip0">
<rect width="562" height="864" fill="white"/>
</clipPath>
</defs>
</svg>
