<?xml version="1.0" ?><svg data-name="Layer 1" id="Layer_1" viewBox="0 0 256 256" xmlns="http://www.w3.org/2000/svg"><defs><style>.cls-1{fill:#2197f7;}.cls-2{fill:#40bdff;}.cls-3{fill:#fd0;}.cls-4{fill:#effafe;}.cls-5{fill:#efc803;}.cls-6{fill:#e4ebed;}.cls-7{fill:#228ed6;}.cls-8{fill:#263238;}</style></defs><title/><path class="cls-1" d="M38.85,203.1V74.75a8,8,0,0,1,8-8H134a11.93,11.93,0,0,0,8.49-3.52l16-16a8,8,0,0,1,5.66-2.34h50a8,8,0,0,1,8,8v9.85H186a12,12,0,0,0-8.48,3.51l-16,16a8,8,0,0,1-5.65,2.33H63.7a12,12,0,0,0-12,12V211.1H46.85A8,8,0,0,1,38.85,203.1Z"/><path class="cls-2" d="M244,225V74.75a8,8,0,0,0-8-8H186a8,8,0,0,0-5.65,2.34l-16,16a12,12,0,0,1-8.48,3.5H68.7a8,8,0,0,0-8,8V225a8,8,0,0,0,8,8H236A8,8,0,0,0,244,225Zm-16.15-44.27H170.19a2,2,0,0,1-2-2V121a2,2,0,0,1,2-2h57.66a2,2,0,0,1,2,2v57.66A2,2,0,0,1,227.85,180.68Zm-158-57.33a2,2,0,0,1,2-2h58.34a2,2,0,0,1,0,4H71.85A2,2,0,0,1,69.85,123.36Zm0,18.44a2,2,0,0,1,2-2h78.34a2,2,0,0,1,0,4H71.85A2,2,0,0,1,69.85,141.8Zm82.34,18.44a2,2,0,0,1-2,2H71.85a2,2,0,0,1,0-4h78.34A2,2,0,0,1,152.19,160.24Zm0,18.44a2,2,0,0,1-2,2H91.85a2,2,0,1,1,0-4h58.34A2,2,0,0,1,152.19,178.68Z"/><path class="cls-1" d="M236,66.75h-5a8,8,0,0,1,8,8V225a8,8,0,0,1-8,8h5a8,8,0,0,0,8-8V74.75A8,8,0,0,0,236,66.75Z"/><path class="cls-3" d="M219.69,173.31c0-7-4.05-13.91-12.31-17.07,2.68-2.65,4.31-5.52,4.31-9.55a12.68,12.68,0,0,0-25.36,0c0,4,1.65,6.91,4.31,9.55-8.29,3.17-12.31,10.11-12.31,17.07v3.37h-6.16V123h53.66v53.66h-6.16Z"/><path class="cls-4" d="M198.07,155.32h0a8.69,8.69,0,1,1,1.89,0Z"/><path class="cls-4" d="M196.33,159.32h5.37a14,14,0,0,1,14,14v3.37H182.34v-3.37A14,14,0,0,1,196.33,159.32Z"/><path class="cls-2" d="M25,44.9h87.2a11.88,11.88,0,0,0,8.49-3.52l16-16A8,8,0,0,1,142.34,23h50a8,8,0,0,1,8,8V40.9H164.19a11.92,11.92,0,0,0-8.48,3.52l-16,16A8,8,0,0,1,134,62.75H41.85a12,12,0,0,0-12,12v114.5H25a8,8,0,0,1-8-8V52.9A8,8,0,0,1,25,44.9Z"/><rect class="cls-5" height="53.66" width="5" x="220.85" y="123.02"/><path class="cls-6" d="M199,138a8.65,8.65,0,0,0-2.5.37,8.67,8.67,0,0,1,0,16.61,8.72,8.72,0,0,0,1.54.32h1.89A8.68,8.68,0,0,0,199,138Z"/><path class="cls-6" d="M201.7,159.32h-5a14,14,0,0,1,14,14v3.37h5v-3.37A14,14,0,0,0,201.7,159.32Z"/><path class="cls-1" d="M192.3,23h-4.5a8,8,0,0,1,8,8V40.9h4.5V31A8,8,0,0,0,192.3,23Z"/><path class="cls-7" d="M214.15,44.9h-4.5a8,8,0,0,1,8,8v9.85h4.5V52.9A8,8,0,0,0,214.15,44.9Z"/><path class="cls-8" d="M7.5,52.9V181.25A12.51,12.51,0,0,0,20,193.75h9.35v9.35a12.51,12.51,0,0,0,12.5,12.5H51.2V225a12.51,12.51,0,0,0,12.5,12.5H236A12.51,12.51,0,0,0,248.5,225V74.75A12.51,12.51,0,0,0,236,62.25h-9.35V52.9a12.51,12.51,0,0,0-12.5-12.5H204.8V31a12.51,12.51,0,0,0-12.5-12.5h-50a12.55,12.55,0,0,0-8.84,3.67l-16,16a7.42,7.42,0,0,1-5.3,2.2H20A12.51,12.51,0,0,0,7.5,52.9ZM56.2,96.6a7.51,7.51,0,0,1,7.5-7.5h92.21a12.45,12.45,0,0,0,8.83-3.65l16-16a7.48,7.48,0,0,1,5.3-2.2h50a7.51,7.51,0,0,1,7.5,7.5V225a7.51,7.51,0,0,1-7.5,7.5H63.7a7.51,7.51,0,0,1-7.5-7.5V96.6ZM34.35,74.75a7.51,7.51,0,0,1,7.5-7.5H134a12.43,12.43,0,0,0,8.85-3.66l16-16a7.45,7.45,0,0,1,5.3-2.2h50a7.51,7.51,0,0,1,7.5,7.5v9.35H186a12.45,12.45,0,0,0-8.83,3.66l-16,16a7.48,7.48,0,0,1-5.3,2.19H63.7A12.51,12.51,0,0,0,51.2,96.6v114H41.85a7.51,7.51,0,0,1-7.5-7.5V74.75ZM12.5,52.9A7.51,7.51,0,0,1,20,45.4h92.2A12.38,12.38,0,0,0,121,41.73l16-16a7.52,7.52,0,0,1,5.3-2.2h50a7.51,7.51,0,0,1,7.5,7.5V40.4H164.19a12.42,12.42,0,0,0-8.84,3.66l-16,16a7.46,7.46,0,0,1-5.31,2.2H41.85a12.51,12.51,0,0,0-12.5,12.5v114H20a7.51,7.51,0,0,1-7.5-7.5Z"/><path class="cls-8" d="M167.69,121v57.66a2.5,2.5,0,0,0,2.5,2.5h57.66a2.5,2.5,0,0,0,2.5-2.5V121a2.5,2.5,0,0,0-2.5-2.5H170.19A2.5,2.5,0,0,0,167.69,121Zm15.16,52.3a13.51,13.51,0,0,1,13.49-13.49h5.37a13.51,13.51,0,0,1,13.49,13.49v2.87H182.84Zm17.09-18.49H198.1a8.18,8.18,0,1,1,1.83,0Zm-27.25-31.31h52.66v52.66h-5.16v-2.87a18.51,18.51,0,0,0-11.91-17.26,13.18,13.18,0,1,0-18.54,0,18.51,18.51,0,0,0-11.91,17.26v2.87h-5.16Z"/><path class="cls-8" d="M71.85,120.86h58.34a2.5,2.5,0,0,1,0,5H71.85a2.5,2.5,0,0,1,0-5Z"/><path class="cls-8" d="M71.85,139.3h78.34a2.5,2.5,0,0,1,0,5H71.85a2.5,2.5,0,0,1,0-5Z"/><path class="cls-8" d="M71.85,157.74h78.34a2.5,2.5,0,0,1,0,5H71.85a2.5,2.5,0,0,1,0-5Z"/><path class="cls-8" d="M91.85,176.18h58.34a2.5,2.5,0,0,1,0,5H91.85a2.5,2.5,0,1,1,0-5Z"/><path class="cls-3" d="M25,222.5H21v-4a1,1,0,0,0-2,0v4H15a1,1,0,0,0,0,2h4v4a1,1,0,0,0,2,0v-4h4a1,1,0,0,0,0-2Z"/><path class="cls-3" d="M219,17.55h-4v-4a1,1,0,1,0-2,0v4h-4a1,1,0,0,0,0,2h4v4a1,1,0,0,0,2,0v-4h4a1,1,0,0,0,0-2Z"/><path class="cls-2" d="M72,24.6H68v-4a1,1,0,1,0-2,0v4H62a1,1,0,0,0,0,2h4v4a1,1,0,0,0,2,0v-4h4a1,1,0,0,0,0-2Z"/><path class="cls-2" d="M113.5,25.6a6,6,0,1,1,6-6A6,6,0,0,1,113.5,25.6Zm0-10a4,4,0,1,0,4,4A4,4,0,0,0,113.5,15.6Z"/><path class="cls-3" d="M232.34,39.21a6,6,0,1,1,6-6A6,6,0,0,1,232.34,39.21Zm0-10a4,4,0,1,0,4,4A4,4,0,0,0,232.34,29.21Z"/><path class="cls-2" d="M49.85,239H47.26l1.83-1.83a1,1,0,0,0-1.41-1.41l-1.83,1.83V235a1,1,0,0,0-2,0v2.59L42,235.76a1,1,0,0,0-1.41,1.41L42.44,239H39.85a1,1,0,1,0,0,2h2.59l-1.83,1.83A1,1,0,0,0,42,244.24l1.83-1.83V245a1,1,0,0,0,2,0v-2.59l1.83,1.83a1,1,0,0,0,1.41-1.41L47.26,241h2.59a1,1,0,0,0,0-2Z"/></svg>