<svg width="1000" height="1000" viewBox="0 0 1000 1000" fill="none" xmlns="http://www.w3.org/2000/svg">
<mask id="mask0" mask-type="alpha" maskUnits="userSpaceOnUse" x="172" y="61" width="656" height="878">
<rect x="172" y="61" width="656" height="878" rx="27" fill="#546E7A"/>
</mask>
<g mask="url(#mask0)">
<rect x="172" y="61" width="656" height="878" rx="27" fill="#546E7A"/>
<circle cx="774.5" cy="115.5" r="27.5" fill="#EBEDEF"/>
<circle cx="225.5" cy="115.5" r="27.5" fill="#EBEDEF"/>
<path d="M253 884.5C253 899.688 240.688 912 225.5 912C210.312 912 198 899.688 198 884.5C198 869.312 210.312 857 225.5 857C240.688 857 253 869.312 253 884.5Z" fill="#EBEDEF"/>
<circle cx="774.5" cy="884.5" r="27.5" fill="#EBEDEF"/>
<circle cx="499.5" cy="474.5" r="303.5" fill="#E57373"/>
<circle cx="500" cy="472" r="82" fill="#546E7A"/>
<rect x="501" y="61" width="328" height="878" fill="black" fill-opacity="0.2"/>
<path d="M773 760C773 797.555 742.555 828 705 828C667.445 828 637 797.555 637 760C637 722.445 667.445 692 705 692C742.555 692 773 722.445 773 760Z" fill="#EBEDEF"/>
<path d="M426 614C426 621.732 419.732 628 412 628C404.268 628 398 621.732 398 614C398 606.268 404.268 600 412 600C419.732 600 426 606.268 426 614Z" fill="#EBEDEF"/>
<path d="M725 695L414.5 600L402.5 624.284L658.376 809.5L745 774.5L725 695Z" fill="#EBEDEF"/>
<circle cx="705.5" cy="760.5" r="41.5" fill="#435862"/>
<mask id="mask1" mask-type="alpha" maskUnits="userSpaceOnUse" x="501" y="608" width="328" height="331">
<path d="M586.349 790C556.179 801.6 516.879 802.167 501 801V939H829V608H801.212C795.654 624.8 769.785 662.333 757.545 679C764.69 683.4 777.063 696.833 782.356 703C787.913 708.6 793.934 722 796.25 728C801.807 741.2 801.873 764.5 801.212 774.5C796.845 794.1 789.799 807 786.821 811C771.736 837.8 746.132 849.167 735.215 851.5C707.427 863.1 673.684 852.667 660.286 846L586.349 790Z" fill="black"/>
</mask>
<g mask="url(#mask1)">
<rect x="501" y="608" width="327" height="331" fill="#C4C4C4" fill-opacity="0.5"/>
</g>
</g>
</svg>
