<svg width="1000" height="1000" viewBox="0 0 1000 1000" fill="none" xmlns="http://www.w3.org/2000/svg">
<mask id="mask0" mask-type="alpha" maskUnits="userSpaceOnUse" x="238" y="161" width="524" height="678">
<path d="M761.328 255.551L666.577 161H238V838.248H761.328V255.551Z" fill="black"/>
</mask>
<g mask="url(#mask0)">
<path d="M728.345 161H269.881C251.665 161 236.898 175.767 236.898 193.983V805.265C236.898 823.481 251.665 838.248 269.881 838.248H728.345C746.561 838.248 761.328 823.481 761.328 805.265V193.983C761.328 175.767 746.561 161 728.345 161Z" fill="#BBDEFB"/>
</g>
<path d="M760.901 255.027L667.449 161.575C667.816 185.763 668.549 236.337 668.549 245.132C668.549 253.927 675.145 255.393 678.443 255.027H760.901Z" fill="#90CAF9"/>
<path d="M437.194 506L288 753H585L437.194 506Z" fill="#1E88E5"/>
<path d="M614.974 585L513 753H716L614.974 585Z" fill="#42A5F5"/>
<circle cx="666.5" cy="406.5" r="40.5" fill="#2196F3"/>
</svg>
