<svg width="1000" height="1000" viewBox="0 0 1000 1000" fill="none" xmlns="http://www.w3.org/2000/svg">
<mask id="mask0" mask-type="alpha" maskUnits="userSpaceOnUse" x="238" y="161" width="524" height="678">
<path d="M761.328 255.551L666.577 161H238V838.248H761.328V255.551Z" fill="black"/>
</mask>
<g mask="url(#mask0)">
<path d="M728.345 161H269.881C251.665 161 236.898 175.767 236.898 193.983V805.265C236.898 823.481 251.665 838.248 269.881 838.248H728.345C746.561 838.248 761.328 823.481 761.328 805.265V193.983C761.328 175.767 746.561 161 728.345 161Z" fill="#BBDEFB"/>
</g>
<path d="M760.901 255.027L667.449 161.575C667.816 185.763 668.549 236.337 668.549 245.132C668.549 253.927 675.145 255.393 678.443 255.027H760.901Z" fill="#90CAF9"/>
<path d="M323.222 495.33H681.202V711C681.202 722.046 672.248 731 661.202 731H343.222C332.177 731 323.222 722.046 323.222 711V495.33Z" fill="#64B5F6"/>
<rect x="312.781" y="455.057" width="378.862" height="40.2727" fill="#2196F3"/>
<mask id="mask1" mask-type="alpha" maskUnits="userSpaceOnUse" x="312" y="455" width="380" height="41">
<rect x="312.781" y="455.057" width="378.862" height="40.2727" fill="#2196F3"/>
</mask>
<g mask="url(#mask1)">
<rect width="44.7475" height="132.751" transform="matrix(1 0 -0.483435 0.87538 312.781 413.293)" fill="#1976D2"/>
<rect width="44.7475" height="132.751" transform="matrix(1 0 -0.483435 0.87538 402.276 413.293)" fill="#1976D2"/>
<rect width="44.7475" height="132.751" transform="matrix(1 0 -0.483435 0.87538 491.771 413.293)" fill="#1976D2"/>
<rect width="44.7475" height="132.751" transform="matrix(1 0 -0.483435 0.87538 581.266 413.293)" fill="#1976D2"/>
<rect width="44.7475" height="132.751" transform="matrix(1 0 -0.483435 0.87538 670.761 413.293)" fill="#1976D2"/>
</g>
<rect width="378.862" height="40.2727" transform="matrix(-0.939693 0.34202 0.34202 0.939693 655.371 288)" fill="#2196F3"/>
<mask id="mask2" mask-type="alpha" maskUnits="userSpaceOnUse" x="299" y="288" width="371" height="168">
<rect width="378.862" height="40.2727" transform="matrix(-0.939693 0.34202 0.34202 0.939693 655.371 288)" fill="#2196F3"/>
</mask>
<g mask="url(#mask2)">
<rect width="44.7475" height="132.751" transform="matrix(-0.939693 0.34202 0.753678 0.657244 641.086 248.754)" fill="#1976D2"/>
<rect width="44.7475" height="132.751" transform="matrix(-0.939693 0.34202 0.753678 0.657244 556.989 279.364)" fill="#1976D2"/>
<rect width="44.7475" height="132.751" transform="matrix(-0.939693 0.34202 0.753678 0.657244 472.891 309.972)" fill="#1976D2"/>
<rect width="44.7475" height="132.751" transform="matrix(-0.939693 0.34202 0.753678 0.657244 388.793 340.582)" fill="#1976D2"/>
<rect width="44.7475" height="132.751" transform="matrix(-0.939693 0.34202 0.753678 0.657244 304.696 371.191)" fill="#1976D2"/>
</g>
<path d="M558.892 614.228L445.532 546.044L445.532 681.778L558.892 614.228Z" fill="#1E88E5"/>
</svg>
