<svg width="1000" height="1000" viewBox="0 0 1000 1000" fill="none" xmlns="http://www.w3.org/2000/svg">
<mask id="mask0" mask-type="alpha" maskUnits="userSpaceOnUse" x="238" y="161" width="524" height="678">
<path d="M761.328 255.551L666.577 161H238V838.248H761.328V255.551Z" fill="black"/>
</mask>
<g mask="url(#mask0)">
<path d="M728.345 161H269.881C251.665 161 236.898 175.767 236.898 193.983V805.265C236.898 823.481 251.665 838.248 269.881 838.248H728.345C746.561 838.248 761.328 823.481 761.328 805.265V193.983C761.328 175.767 746.561 161 728.345 161Z" fill="#BBDEFB"/>
</g>
<path d="M760.901 255.027L667.449 161.575C667.816 185.763 668.549 236.336 668.549 245.132C668.549 253.927 675.145 255.393 678.443 255.027H760.901Z" fill="#90CAF9"/>
<rect x="309" y="275" width="266.242" height="30" rx="15" fill="#2196F3"/>
<rect x="309" y="346" width="383" height="30" rx="15" fill="#2196F3"/>
<rect x="309" y="415" width="325" height="30" rx="15" fill="#2196F3"/>
<rect x="309" y="485" width="383" height="30" rx="15" fill="#2196F3"/>
<rect x="309" y="555" width="383" height="30" rx="15" fill="#2196F3"/>
<rect x="309" y="625" width="383" height="30" rx="15" fill="#2196F3"/>
<rect x="309" y="695" width="383" height="30" rx="15" fill="#2196F3"/>
</svg>
