<svg width="1000" height="1000" viewBox="0 0 1000 1000" fill="none" xmlns="http://www.w3.org/2000/svg">
<mask id="mask0" mask-type="alpha" maskUnits="userSpaceOnUse" x="238" y="161" width="524" height="678">
<path d="M761.328 255.551L666.577 161H238V838.248H761.328V255.551Z" fill="black"/>
</mask>
<g mask="url(#mask0)">
<path d="M728.345 161H269.881C251.665 161 236.898 175.767 236.898 193.983V805.265C236.898 823.481 251.665 838.248 269.881 838.248H728.345C746.561 838.248 761.328 823.481 761.328 805.265V193.983C761.328 175.767 746.561 161 728.345 161Z" fill="#BBDEFB"/>
</g>
<path d="M760.901 255.027L667.449 161.575C667.816 185.763 668.549 236.337 668.549 245.132C668.549 253.927 675.145 255.393 678.443 255.027H760.901Z" fill="#90CAF9"/>
<rect x="422" y="443" width="156" height="156" rx="25" fill="#42A5F5"/>
<path fill-rule="evenodd" clip-rule="evenodd" d="M636 345H520V417H574C590.569 417 604 430.431 604 447V501H676V385C676 362.909 658.091 345 636 345ZM396 540V595C396 611.569 409.431 625 426 625H480V696H364C341.909 696 324 678.091 324 656V540H396Z" fill="#2196F3"/>
<path fill-rule="evenodd" clip-rule="evenodd" d="M364 345C341.909 345 324 362.909 324 385V501H396V447C396 430.431 409.431 417 426 417H480V345H364ZM520 625H574C590.569 625 604 611.569 604 595V540H676V656C676 678.091 658.091 696 636 696H520V625Z" fill="#64B5F6"/>
</svg>
