<svg width="1000" height="1000" viewBox="0 0 1000 1000" fill="none" xmlns="http://www.w3.org/2000/svg">
<rect width="1000" height="1000"/>
<path d="M894 272.527L500 46.3845L108.331 272.527L500 503.331L894 272.527Z" fill="#90CAF9"/>
<path d="M500 503.331V955.615L894 734.136V272.527L500 503.331Z" fill="#BBDEFB"/>
<path d="M106 729.473L108.331 272.527L500 503.331V955.033L106 729.473Z" fill="#E3F2FD"/>
<path d="M243.55 353.541L638.133 126.234L757.615 193.843L362.45 423.482V619.316L241.219 549.959L243.55 353.541Z" fill="white" fill-opacity="0.5"/>
<mask id="mask0" mask-type="alpha" maskUnits="userSpaceOnUse" x="241" y="353" width="122" height="267">
<path d="M243.55 353.542L362.45 423.482V619.317L241.219 549.959L243.55 353.542Z" fill="white"/>
</mask>
<g mask="url(#mask0)">
<path d="M284.631 577.874L295.114 582.971L295.395 571.318L284.912 566.22L284.631 577.874Z" fill="black" fill-opacity="0.5"/>
<path d="M285.194 554.567L295.677 559.665L295.958 548.011L285.475 542.913L285.194 554.567Z" fill="black" fill-opacity="0.5"/>
<path d="M285.757 531.26L296.24 536.358L296.521 524.704L286.038 519.607L285.757 531.26Z" fill="black" fill-opacity="0.5"/>
<path d="M286.32 507.953L296.803 513.051L297.084 501.398L286.601 496.3L286.32 507.953Z" fill="black" fill-opacity="0.5"/>
<path d="M286.883 484.646L297.366 489.744L297.647 478.091L287.164 472.993L286.883 484.646Z" fill="black" fill-opacity="0.5"/>
<path d="M287.446 461.34L297.929 466.437L298.21 454.784L287.727 449.686L287.446 461.34Z" fill="black" fill-opacity="0.5"/>
<path d="M288.009 438.033L298.492 443.131L298.773 431.477L288.291 426.379L288.009 438.033Z" fill="black" fill-opacity="0.5"/>
<path d="M288.572 414.726L299.055 419.824L299.337 408.17L288.854 403.073L288.572 414.726Z" fill="black" fill-opacity="0.5"/>
<path d="M289.135 391.419L299.618 396.517L299.9 384.864L289.417 379.766L289.135 391.419Z" fill="black" fill-opacity="0.5"/>
<path d="M294.832 594.625L305.315 599.723L305.597 588.069L295.114 582.971L294.832 594.625Z" fill="black" fill-opacity="0.5"/>
<path d="M295.395 571.318L305.878 576.416L306.16 564.763L295.677 559.665L295.395 571.318Z" fill="black" fill-opacity="0.5"/>
<path d="M295.958 548.011L306.441 553.109L306.723 541.456L296.24 536.358L295.958 548.011Z" fill="black" fill-opacity="0.5"/>
<path d="M296.521 524.704L307.004 529.802L307.286 518.149L296.803 513.051L296.521 524.704Z" fill="black" fill-opacity="0.5"/>
<path d="M297.084 501.398L307.567 506.496L307.849 494.842L297.366 489.744L297.084 501.398Z" fill="black" fill-opacity="0.5"/>
<path d="M297.647 478.091L308.13 483.189L308.412 471.535L297.929 466.437L297.647 478.091Z" fill="black" fill-opacity="0.5"/>
<path d="M298.21 454.784L308.693 459.882L308.975 448.229L298.492 443.131L298.21 454.784Z" fill="black" fill-opacity="0.5"/>
<path d="M298.773 431.477L309.256 436.575L309.538 424.922L299.055 419.824L298.773 431.477Z" fill="black" fill-opacity="0.5"/>
<path d="M299.337 408.17L309.819 413.268L310.101 401.615L299.618 396.517L299.337 408.17Z" fill="black" fill-opacity="0.5"/>
<path d="M299.9 384.864L310.383 389.962L310.664 378.308L300.181 373.21L299.9 384.864Z" fill="black" fill-opacity="0.5"/>
<path d="M305.597 588.069L316.08 593.167L316.361 581.514L305.878 576.416L305.597 588.069Z" fill="black" fill-opacity="0.5"/>
<path d="M306.16 564.763L316.643 569.861L316.924 558.207L306.441 553.109L306.16 564.763Z" fill="black" fill-opacity="0.5"/>
<path d="M306.723 541.456L317.206 546.554L317.487 534.9L307.004 529.802L306.723 541.456Z" fill="black" fill-opacity="0.5"/>
<path d="M307.286 518.149L317.769 523.247L318.05 511.593L307.567 506.496L307.286 518.149Z" fill="black" fill-opacity="0.5"/>
<path d="M307.849 494.842L318.332 499.94L318.613 488.287L308.13 483.189L307.849 494.842Z" fill="black" fill-opacity="0.5"/>
<path d="M308.412 471.535L318.895 476.633L319.176 464.98L308.693 459.882L308.412 471.535Z" fill="black" fill-opacity="0.5"/>
<path d="M308.975 448.229L319.458 453.326L319.739 441.673L309.256 436.575L308.975 448.229Z" fill="black" fill-opacity="0.5"/>
<path d="M309.538 424.922L320.021 430.02L320.302 418.366L309.819 413.268L309.538 424.922Z" fill="black" fill-opacity="0.5"/>
<path d="M310.101 401.615L320.584 406.713L320.865 395.059L310.383 389.962L310.101 401.615Z" fill="black" fill-opacity="0.5"/>
</g>
<mask id="mask1" mask-type="alpha" maskUnits="userSpaceOnUse" x="243" y="126" width="515" height="298">
<path d="M243.55 353.541L638.133 126.234L757.615 193.843L362.45 423.482L243.55 353.541Z" fill="white"/>
</mask>
<g mask="url(#mask1)">
<path d="M692.654 141.97L702.196 148.666L692.141 154.564L682.599 147.868L692.654 141.97Z" fill="black" fill-opacity="0.5"/>
<path d="M672.544 153.766L682.087 160.462L672.032 166.36L662.49 159.664L672.544 153.766Z" fill="black" fill-opacity="0.5"/>
<path d="M652.435 165.562L661.978 172.258L651.923 178.156L642.381 171.46L652.435 165.562Z" fill="black" fill-opacity="0.5"/>
<path d="M632.326 177.358L641.868 184.054L631.814 189.952L622.271 183.256L632.326 177.358Z" fill="black" fill-opacity="0.5"/>
<path d="M612.217 189.154L621.759 195.85L611.705 201.748L602.162 195.052L612.217 189.154Z" fill="black" fill-opacity="0.5"/>
<path d="M592.108 200.95L601.65 207.646L591.595 213.544L582.053 206.848L592.108 200.95Z" fill="black" fill-opacity="0.5"/>
<path d="M571.999 212.746L581.541 219.442L571.486 225.34L561.944 218.644L571.999 212.746Z" fill="black" fill-opacity="0.5"/>
<path d="M551.889 224.542L561.432 231.238L551.377 237.136L541.835 230.44L551.889 224.542Z" fill="black" fill-opacity="0.5"/>
<path d="M531.78 236.338L541.323 243.034L531.268 248.932L521.726 242.236L531.78 236.338Z" fill="black" fill-opacity="0.5"/>
<path d="M511.671 248.134L521.213 254.83L511.159 260.728L501.616 254.032L511.671 248.134Z" fill="black" fill-opacity="0.5"/>
<path d="M491.562 259.93L501.104 266.626L491.05 272.524L481.507 265.828L491.562 259.93Z" fill="black" fill-opacity="0.5"/>
<path d="M471.453 271.726L480.995 278.422L470.94 284.32L461.398 277.624L471.453 271.726Z" fill="black" fill-opacity="0.5"/>
<path d="M451.343 283.522L460.886 290.218L450.831 296.116L441.289 289.42L451.343 283.522Z" fill="black" fill-opacity="0.5"/>
<path d="M431.234 295.318L440.777 302.014L430.722 307.912L421.18 301.216L431.234 295.318Z" fill="black" fill-opacity="0.5"/>
<path d="M411.125 307.114L420.668 313.81L410.613 319.708L401.071 313.012L411.125 307.114Z" fill="black" fill-opacity="0.5"/>
<path d="M391.016 318.91L400.558 325.606L390.504 331.504L380.961 324.808L391.016 318.91Z" fill="black" fill-opacity="0.5"/>
<path d="M370.907 330.706L380.449 337.402L370.395 343.3L360.852 336.604L370.907 330.706Z" fill="black" fill-opacity="0.5"/>
<path d="M350.798 342.502L360.34 349.198L350.285 355.096L340.743 348.4L350.798 342.502Z" fill="black" fill-opacity="0.5"/>
<path d="M330.688 354.298L340.231 360.994L330.176 366.892L320.634 360.196L330.688 354.298Z" fill="black" fill-opacity="0.5"/>
<path d="M310.579 366.094L320.122 372.79L310.067 378.688L300.525 371.992L310.579 366.094Z" fill="black" fill-opacity="0.5"/>
<path d="M290.47 377.89L300.012 384.586L289.958 390.484L280.416 383.788L290.47 377.89Z" fill="black" fill-opacity="0.5"/>
<path d="M692.141 154.564L701.684 161.259L691.629 167.157L682.087 160.462L692.141 154.564Z" fill="black" fill-opacity="0.5"/>
<path d="M672.032 166.36L681.574 173.055L671.52 178.953L661.978 172.258L672.032 166.36Z" fill="black" fill-opacity="0.5"/>
<path d="M651.923 178.156L661.465 184.851L651.411 190.749L641.868 184.054L651.923 178.156Z" fill="black" fill-opacity="0.5"/>
<path d="M631.814 189.952L641.356 196.647L631.302 202.545L621.759 195.85L631.814 189.952Z" fill="black" fill-opacity="0.5"/>
<path d="M611.705 201.748L621.247 208.443L611.192 214.341L601.65 207.646L611.705 201.748Z" fill="black" fill-opacity="0.5"/>
<path d="M591.595 213.544L601.138 220.239L591.083 226.137L581.541 219.442L591.595 213.544Z" fill="black" fill-opacity="0.5"/>
<path d="M571.486 225.34L581.029 232.035L570.974 237.933L561.432 231.238L571.486 225.34Z" fill="black" fill-opacity="0.5"/>
<path d="M551.377 237.136L560.919 243.831L550.865 249.729L541.323 243.034L551.377 237.136Z" fill="black" fill-opacity="0.5"/>
<path d="M531.268 248.932L540.81 255.627L530.756 261.525L521.213 254.83L531.268 248.932Z" fill="black" fill-opacity="0.5"/>
<path d="M511.159 260.728L520.701 267.423L510.647 273.321L501.104 266.626L511.159 260.728Z" fill="black" fill-opacity="0.5"/>
<path d="M491.05 272.524L500.592 279.219L490.537 285.117L480.995 278.422L491.05 272.524Z" fill="black" fill-opacity="0.5"/>
<path d="M470.94 284.32L480.483 291.015L470.428 296.913L460.886 290.218L470.94 284.32Z" fill="black" fill-opacity="0.5"/>
<path d="M450.831 296.116L460.374 302.811L450.319 308.709L440.777 302.014L450.831 296.116Z" fill="black" fill-opacity="0.5"/>
<path d="M430.722 307.912L440.264 314.607L430.21 320.505L420.668 313.81L430.722 307.912Z" fill="black" fill-opacity="0.5"/>
<path d="M410.613 319.708L420.155 326.403L410.101 332.301L400.558 325.606L410.613 319.708Z" fill="black" fill-opacity="0.5"/>
<path d="M390.504 331.504L400.046 338.199L389.992 344.097L380.449 337.402L390.504 331.504Z" fill="black" fill-opacity="0.5"/>
<path d="M370.395 343.3L379.937 349.995L369.882 355.893L360.34 349.198L370.395 343.3Z" fill="black" fill-opacity="0.5"/>
<path d="M350.285 355.096L359.828 361.791L349.773 367.689L340.231 360.994L350.285 355.096Z" fill="black" fill-opacity="0.5"/>
<path d="M330.176 366.892L339.719 373.587L329.664 379.485L320.122 372.79L330.176 366.892Z" fill="black" fill-opacity="0.5"/>
<path d="M310.067 378.688L319.609 385.383L309.555 391.281L300.012 384.586L310.067 378.688Z" fill="black" fill-opacity="0.5"/>
<path d="M289.958 390.484L299.5 397.179L289.446 403.077L279.903 396.382L289.958 390.484Z" fill="black" fill-opacity="0.5"/>
<path d="M711.738 155.361L721.281 162.056L711.226 167.954L701.684 161.259L711.738 155.361Z" fill="black" fill-opacity="0.5"/>
<path d="M691.629 167.157L701.171 173.852L691.117 179.75L681.574 173.055L691.629 167.157Z" fill="black" fill-opacity="0.5"/>
<path d="M671.52 178.953L681.062 185.648L671.008 191.546L661.465 184.851L671.52 178.953Z" fill="black" fill-opacity="0.5"/>
<path d="M651.411 190.749L660.953 197.444L650.899 203.342L641.356 196.647L651.411 190.749Z" fill="black" fill-opacity="0.5"/>
<path d="M631.302 202.545L640.844 209.24L630.789 215.138L621.247 208.443L631.302 202.545Z" fill="black" fill-opacity="0.5"/>
<path d="M611.192 214.341L620.735 221.036L610.68 226.934L601.138 220.239L611.192 214.341Z" fill="black" fill-opacity="0.5"/>
<path d="M591.083 226.137L600.626 232.832L590.571 238.73L581.029 232.035L591.083 226.137Z" fill="black" fill-opacity="0.5"/>
<path d="M570.974 237.933L580.516 244.628L570.462 250.526L560.919 243.831L570.974 237.933Z" fill="black" fill-opacity="0.5"/>
<path d="M550.865 249.729L560.407 256.424L550.353 262.322L540.81 255.627L550.865 249.729Z" fill="black" fill-opacity="0.5"/>
<path d="M530.756 261.525L540.298 268.22L530.244 274.118L520.701 267.423L530.756 261.525Z" fill="black" fill-opacity="0.5"/>
<path d="M510.647 273.321L520.189 280.016L510.134 285.914L500.592 279.219L510.647 273.321Z" fill="black" fill-opacity="0.5"/>
<path d="M490.537 285.117L500.08 291.812L490.025 297.71L480.483 291.015L490.537 285.117Z" fill="black" fill-opacity="0.5"/>
<path d="M470.428 296.913L479.971 303.608L469.916 309.506L460.374 302.811L470.428 296.913Z" fill="black" fill-opacity="0.5"/>
<path d="M450.319 308.709L459.861 315.404L449.807 321.302L440.264 314.607L450.319 308.709Z" fill="black" fill-opacity="0.5"/>
<path d="M430.21 320.505L439.752 327.2L429.698 333.098L420.155 326.403L430.21 320.505Z" fill="black" fill-opacity="0.5"/>
<path d="M410.101 332.301L419.643 338.996L409.588 344.894L400.046 338.199L410.101 332.301Z" fill="black" fill-opacity="0.5"/>
<path d="M389.992 344.097L399.534 350.792L389.479 356.69L379.937 349.995L389.992 344.097Z" fill="black" fill-opacity="0.5"/>
<path d="M369.882 355.893L379.425 362.588L369.37 368.486L359.828 361.791L369.882 355.893Z" fill="black" fill-opacity="0.5"/>
<path d="M349.773 367.689L359.316 374.384L349.261 380.282L339.719 373.587L349.773 367.689Z" fill="black" fill-opacity="0.5"/>
<path d="M329.664 379.485L339.206 386.18L329.152 392.078L319.609 385.383L329.664 379.485Z" fill="black" fill-opacity="0.5"/>
<path d="M309.555 391.281L319.097 397.976L309.043 403.874L299.5 397.179L309.555 391.281Z" fill="black" fill-opacity="0.5"/>
</g>
<path fill-rule="evenodd" clip-rule="evenodd" d="M288.082 563.554L280.852 654.87L319.412 671.428L312.182 573.903L288.082 563.554ZM292.299 600.336L287.279 652.967L314.056 664.466L309.035 607.523L292.299 600.336Z" fill="black" fill-opacity="0.8"/>
</svg>
