<svg width="1000" height="1000" viewBox="0 0 1000 1000" fill="none" xmlns="http://www.w3.org/2000/svg">
<path d="M104.011 243H835.011C868.148 243 895.011 269.863 895.011 303V776C895.011 809.137 868.148 836 835.011 836H164.011C130.874 836 104.011 809.137 104.011 776V243Z" fill="#90CAF9"/>
<path d="M168.011 164H383.011L435.011 244H104.011C103.211 195.2 146.344 170.333 168.011 164Z" fill="#90CAF9"/>
<g filter="url(#filter0_i)">
<path d="M655.431 623.006L521.3 395.245C516.729 387.567 508.781 383 499.971 383C491.228 383 483.213 387.567 478.709 395.245L344.578 623.006C339.875 630.949 339.808 640.481 344.379 648.49C348.883 656.3 356.898 661 365.84 661H634.169C643.111 661 651.126 656.3 655.563 648.49C660.2 640.481 660.134 630.949 655.431 623.006ZM486.331 481.328H508.725V502.423L503.925 561.458H491.131L486.331 502.423V481.328V481.328ZM506.005 596.124C503.66 598.522 500.859 599.724 497.609 599.724C494.355 599.724 491.554 598.522 489.21 596.124C486.861 593.726 485.691 590.869 485.691 587.54C485.691 584.217 486.861 581.354 489.21 578.956C491.554 576.557 494.355 575.355 497.609 575.355C500.859 575.355 503.66 576.557 506.005 578.956C508.35 581.354 509.524 584.217 509.524 587.54C509.524 590.869 508.35 593.726 506.005 596.124Z" fill="#64B5F6"/>
</g>
<defs>
<filter id="filter0_i" x="341" y="383" width="318" height="278" filterUnits="userSpaceOnUse" color-interpolation-filters="sRGB">
<feFlood flood-opacity="0" result="BackgroundImageFix"/>
<feBlend mode="normal" in="SourceGraphic" in2="BackgroundImageFix" result="shape"/>
<feColorMatrix in="SourceAlpha" type="matrix" values="0 0 0 0 0 0 0 0 0 0 0 0 0 0 0 0 0 0 127 0" result="hardAlpha"/>
<feOffset/>
<feGaussianBlur stdDeviation="12.5"/>
<feComposite in2="hardAlpha" operator="arithmetic" k2="-1" k3="1"/>
<feColorMatrix type="matrix" values="0 0 0 0 0 0 0 0 0 0 0 0 0 0 0 0 0 0 0.5 0"/>
<feBlend mode="normal" in2="shape" result="effect1_innerShadow"/>
</filter>
</defs>
</svg>
